<svg viewBox="0 0 32 32" xmlns="http://www.w3.org/2000/svg"><path d="m9 26h3v3h-3z" fill="#1677FF"/><path d="m20 26h3v3h-3z" fill="#1677FF"/><g fill="none" stroke="#1677FF" stroke-linecap="round" transform="matrix(0 1 -1 0 39 -6.028485)"><path d="m17.528485 22.5h12"/><path d="m24.514243 17.5 5 5-5 5" stroke-linejoin="round"/></g><rect fill="#3a3a38" height="1" ry=".5" width="26" x="3" y="5"/><path d="m14 2c-.554 0-1 .446-1 1v4c0 .554.446 1 1 1h4c.554 0 1-.446 1-1v-4c0-.554-.446-1-1-1zm0 1h4v4h-4z" fill="#3a3a38"/><path d="m14 3h4v4h-4z" fill="#fafafa"/><g fill="#3a3a38"><path d="m3 27h6v1h-6z"/><path d="m23 27h6v1h-6z"/></g></svg>