<svg width="512" height="512" viewBox="0 0 512 512" xmlns="http://www.w3.org/2000/svg">
          <defs>
            <linearGradient id="accent" x1="116" y1="110" x2="178" y2="420" gradientUnits="userSpaceOnUse">
              <stop offset="0" stop-color="#FF85C0"/>
              <stop offset="1" stop-color="#C41D7F"/>
            </linearGradient>
            <linearGradient id="panel" x1="116" y1="84" x2="360" y2="444" gradientUnits="userSpaceOnUse">
              <stop offset="0" stop-color="#ffffff"/>
              <stop offset="1" stop-color="#f8fbff"/>
            </linearGradient>
            <linearGradient id="fold" x1="278" y1="84" x2="348" y2="154" gradientUnits="userSpaceOnUse">
              <stop offset="0" stop-color="#edf5ff"/>
              <stop offset="1" stop-color="#ffffff"/>
            </linearGradient>
          </defs>
          <path d="M132 98h130l74 74v238c0 22-18 40-40 40H132c-22 0-40-18-40-40V138c0-22 18-40 40-40z" fill="#000000" opacity=".08"/>
          <path d="M116 84h130l74 74v238c0 22-18 40-40 40H116c-22 0-40-18-40-40V124c0-22 18-40 40-40z" fill="url(#panel)"/>
          <rect x="116" y="84" width="58" height="352" rx="22" fill="url(#accent)"/>
          <path d="M246 84v54c0 11.046 8.954 20 20 20h54z" fill="url(#fold)"/>

          <g transform="translate(40 62)"><g transform="scale(.74)"><g>
  <path d="M188 226l42 42M230 226l-42 42" fill="none" stroke="#EB2F96" stroke-linecap="round" stroke-width="16"/>
  <path d="M272 248h64M304 216v64" fill="none" stroke="#EB2F96" stroke-linecap="round" stroke-width="16"/>
  <path d="M372 230h64M372 270h64" fill="none" stroke="#FFF0F6" stroke-linecap="round" stroke-width="16"/>
  <path d="M196 334h240" fill="none" stroke="#EB2F96" stroke-linecap="round" stroke-width="16" opacity=".74"/>
</g></g></g>
        </svg>
